<mxfile host="Electron" modified="2024-02-13T02:52:35.655Z" agent="Mozilla/5.0 (Macintosh; Intel Mac OS X 10_15_7) AppleWebKit/537.36 (KHTML, like Gecko) draw.io/23.0.2 Chrome/120.0.6099.109 Electron/28.1.0 Safari/537.36" etag="cNdSLnEjY6HW1WSt4sT6" version="23.0.2" type="device">
  <diagram name="페이지-1" id="Oh1-J-Xx85_WoEW1iGd6">
    <mxGraphModel dx="630" dy="800" grid="1" gridSize="10" guides="1" tooltips="1" connect="1" arrows="1" fold="1" page="1" pageScale="1" pageWidth="827" pageHeight="1169" math="0" shadow="0">
      <root>
        <mxCell id="0" />
        <mxCell id="1" parent="0" />
        <mxCell id="RIsZ0gMZwFEBm6o_Zh2N-1" value="변수값 입력" style="ellipse;whiteSpace=wrap;html=1;" parent="1" vertex="1">
          <mxGeometry x="339" y="40" width="120" height="40" as="geometry" />
        </mxCell>
        <mxCell id="RIsZ0gMZwFEBm6o_Zh2N-7" value="" style="edgeStyle=orthogonalEdgeStyle;rounded=0;orthogonalLoop=1;jettySize=auto;html=1;" parent="1" source="RIsZ0gMZwFEBm6o_Zh2N-2" target="RIsZ0gMZwFEBm6o_Zh2N-3" edge="1">
          <mxGeometry relative="1" as="geometry" />
        </mxCell>
        <mxCell id="RIsZ0gMZwFEBm6o_Zh2N-2" value="&lt;font style=&quot;font-size: 10px;&quot;&gt;length, base, &lt;br&gt;topping, stickLength &lt;br&gt;변수값 출력&lt;/font&gt;" style="rounded=1;whiteSpace=wrap;html=1;" parent="1" vertex="1">
          <mxGeometry x="304" y="120" width="192" height="50" as="geometry" />
        </mxCell>
        <mxCell id="RIsZ0gMZwFEBm6o_Zh2N-9" value="" style="edgeStyle=orthogonalEdgeStyle;rounded=0;orthogonalLoop=1;jettySize=auto;html=1;" parent="1" source="RIsZ0gMZwFEBm6o_Zh2N-3" target="RIsZ0gMZwFEBm6o_Zh2N-4" edge="1">
          <mxGeometry relative="1" as="geometry" />
        </mxCell>
        <mxCell id="RIsZ0gMZwFEBm6o_Zh2N-3" value="&lt;font style=&quot;font-size: 10px;&quot;&gt;&lt;i&gt;[토핑과 몸통을 그리는 함수부]&lt;br&gt;&lt;/i&gt;&lt;/font&gt;&lt;font style=&quot;font-size: 10px;&quot;&gt;\(peperoTopping) + \(peperoBase) + \(peperoTopping)&lt;br&gt;출력&lt;/font&gt;" style="rounded=1;whiteSpace=wrap;html=1;" parent="1" vertex="1">
          <mxGeometry x="280" y="220" width="240" height="60" as="geometry" />
        </mxCell>
        <mxCell id="RIsZ0gMZwFEBm6o_Zh2N-5" style="edgeStyle=orthogonalEdgeStyle;rounded=0;orthogonalLoop=1;jettySize=auto;html=1;" parent="1" source="RIsZ0gMZwFEBm6o_Zh2N-4" edge="1">
          <mxGeometry relative="1" as="geometry">
            <mxPoint x="400" y="190" as="targetPoint" />
            <Array as="points">
              <mxPoint x="200" y="360" />
              <mxPoint x="200" y="190" />
            </Array>
          </mxGeometry>
        </mxCell>
        <mxCell id="RIsZ0gMZwFEBm6o_Zh2N-8" value="YES" style="edgeLabel;html=1;align=center;verticalAlign=middle;resizable=0;points=[];" parent="RIsZ0gMZwFEBm6o_Zh2N-5" vertex="1" connectable="0">
          <mxGeometry x="-0.9156" y="1" relative="1" as="geometry">
            <mxPoint x="-7" y="-11" as="offset" />
          </mxGeometry>
        </mxCell>
        <mxCell id="RIsZ0gMZwFEBm6o_Zh2N-12" value="" style="edgeStyle=orthogonalEdgeStyle;rounded=0;orthogonalLoop=1;jettySize=auto;html=1;" parent="1" source="RIsZ0gMZwFEBm6o_Zh2N-4" target="RIsZ0gMZwFEBm6o_Zh2N-11" edge="1">
          <mxGeometry relative="1" as="geometry" />
        </mxCell>
        <mxCell id="RIsZ0gMZwFEBm6o_Zh2N-13" value="NO" style="edgeLabel;html=1;align=center;verticalAlign=middle;resizable=0;points=[];" parent="RIsZ0gMZwFEBm6o_Zh2N-12" vertex="1" connectable="0">
          <mxGeometry x="-0.3058" y="-1" relative="1" as="geometry">
            <mxPoint x="-19" y="-4" as="offset" />
          </mxGeometry>
        </mxCell>
        <mxCell id="RIsZ0gMZwFEBm6o_Zh2N-4" value="&lt;i&gt;&lt;font style=&quot;font-size: 10px;&quot;&gt;&lt;br&gt;[길이에 따른 몸통 그리는 함수부]&lt;/font&gt;&lt;br&gt;&lt;/i&gt;&lt;font style=&quot;font-size: 10px;&quot;&gt;반복 횟수가 length 보다 &lt;br&gt;작은가?&lt;/font&gt;" style="rhombus;whiteSpace=wrap;html=1;" parent="1" vertex="1">
          <mxGeometry x="294" y="320" width="212" height="80" as="geometry" />
        </mxCell>
        <mxCell id="RIsZ0gMZwFEBm6o_Zh2N-6" style="edgeStyle=orthogonalEdgeStyle;rounded=0;orthogonalLoop=1;jettySize=auto;html=1;entryX=0.493;entryY=-0.1;entryDx=0;entryDy=0;entryPerimeter=0;" parent="1" source="RIsZ0gMZwFEBm6o_Zh2N-1" target="RIsZ0gMZwFEBm6o_Zh2N-2" edge="1">
          <mxGeometry relative="1" as="geometry" />
        </mxCell>
        <mxCell id="RIsZ0gMZwFEBm6o_Zh2N-16" style="edgeStyle=orthogonalEdgeStyle;rounded=0;orthogonalLoop=1;jettySize=auto;html=1;" parent="1" source="RIsZ0gMZwFEBm6o_Zh2N-10" edge="1">
          <mxGeometry relative="1" as="geometry">
            <mxPoint x="400" y="420" as="targetPoint" />
            <Array as="points">
              <mxPoint x="600" y="560" />
              <mxPoint x="600" y="420" />
            </Array>
          </mxGeometry>
        </mxCell>
        <mxCell id="RIsZ0gMZwFEBm6o_Zh2N-17" value="YES" style="edgeLabel;html=1;align=center;verticalAlign=middle;resizable=0;points=[];" parent="RIsZ0gMZwFEBm6o_Zh2N-16" vertex="1" connectable="0">
          <mxGeometry x="-0.8653" y="-3" relative="1" as="geometry">
            <mxPoint y="-13" as="offset" />
          </mxGeometry>
        </mxCell>
        <mxCell id="RIsZ0gMZwFEBm6o_Zh2N-19" value="" style="edgeStyle=orthogonalEdgeStyle;rounded=0;orthogonalLoop=1;jettySize=auto;html=1;" parent="1" source="RIsZ0gMZwFEBm6o_Zh2N-10" target="RIsZ0gMZwFEBm6o_Zh2N-18" edge="1">
          <mxGeometry relative="1" as="geometry" />
        </mxCell>
        <mxCell id="RIsZ0gMZwFEBm6o_Zh2N-10" value="&lt;br&gt;&lt;font style=&quot;font-size: 10px;&quot;&gt;&lt;i&gt;[길이에 따른 막대 그리는 함수부]&lt;br&gt;&lt;/i&gt;&lt;/font&gt;&lt;font style=&quot;font-size: 10px;&quot;&gt;반복 횟수가 stickLength 보다 &lt;br&gt;작은가?&lt;/font&gt;" style="rhombus;whiteSpace=wrap;html=1;" parent="1" vertex="1">
          <mxGeometry x="290" y="520" width="220" height="80" as="geometry" />
        </mxCell>
        <mxCell id="RIsZ0gMZwFEBm6o_Zh2N-14" value="" style="edgeStyle=orthogonalEdgeStyle;rounded=0;orthogonalLoop=1;jettySize=auto;html=1;" parent="1" source="RIsZ0gMZwFEBm6o_Zh2N-11" target="RIsZ0gMZwFEBm6o_Zh2N-10" edge="1">
          <mxGeometry relative="1" as="geometry" />
        </mxCell>
        <mxCell id="RIsZ0gMZwFEBm6o_Zh2N-11" value="&lt;font style=&quot;font-size: 10px;&quot;&gt;&quot; | |&quot; 출력&lt;/font&gt;" style="rounded=1;whiteSpace=wrap;html=1;" parent="1" vertex="1">
          <mxGeometry x="340" y="440" width="120" height="40" as="geometry" />
        </mxCell>
        <mxCell id="RIsZ0gMZwFEBm6o_Zh2N-18" value="끝" style="ellipse;whiteSpace=wrap;html=1;" parent="1" vertex="1">
          <mxGeometry x="359" y="640" width="82" height="40" as="geometry" />
        </mxCell>
      </root>
    </mxGraphModel>
  </diagram>
</mxfile>
